<svg width="34" height="34" viewBox="0 0 34 34" fill="none" xmlns="http://www.w3.org/2000/svg">
<g clip-path="url(#clip0_341_323)">
<path fill-rule="evenodd" clip-rule="evenodd" d="M17.0141 0C7.60573 0 0 7.6618 0 17.1405C0 24.7173 4.87325 31.1309 11.6337 33.4009C12.479 33.5716 12.7886 33.0321 12.7886 32.5783C12.7886 32.1809 12.7607 30.8189 12.7607 29.3997C8.02782 30.4215 7.04224 27.3564 7.04224 27.3564C6.28163 25.37 5.15465 24.8594 5.15465 24.8594C3.60557 23.8094 5.26749 23.8094 5.26749 23.8094C6.98582 23.9229 7.88747 25.5688 7.88747 25.5688C9.40834 28.1794 11.8591 27.4418 12.845 26.9876C12.9857 25.8809 13.4367 25.1147 13.9156 24.6891C10.1407 24.2917 6.16914 22.8161 6.16914 16.2322C6.16914 14.3593 6.84477 12.8269 7.91533 11.6351C7.74643 11.2096 7.15473 9.44978 8.08459 7.09448C8.08459 7.09448 9.52118 6.64034 12.7604 8.8539C14.1472 8.47871 15.5774 8.28784 17.0141 8.28623C18.4507 8.28623 19.9151 8.48509 21.2674 8.8539C24.507 6.64034 25.9435 7.09448 25.9435 7.09448C26.8734 9.44978 26.2814 11.2096 26.1124 11.6351C27.2112 12.8269 27.859 14.3593 27.859 16.2322C27.859 22.8161 23.8874 24.2632 20.0844 24.6891C20.7043 25.2282 21.2392 26.2497 21.2392 27.8673C21.2392 30.1659 21.2113 32.0106 21.2113 32.578C21.2113 33.0321 21.5213 33.5716 22.3662 33.4013C29.1267 31.1306 33.9999 24.7173 33.9999 17.1405C34.0278 7.6618 26.3942 0 17.0141 0Z" fill="white"/>
</g>
<defs>
<clipPath id="clip0_341_323">
<rect width="34" height="34" fill="white"/>
</clipPath>
</defs>
</svg>
